<svg width="14" height="15" viewBox="0 0 14 15" fill="none" xmlns="http://www.w3.org/2000/svg">
<path id="Shape" fill-rule="evenodd" clip-rule="evenodd" d="M4.96605 10.4755L1.19497 14.3033C0.921608 14.5807 0.478392 14.5807 0.205025 14.3033C-0.0683418 14.0258 -0.0683418 13.5759 0.205025 13.2984L3.9761 9.47062C3.23896 8.50808 2.8 7.29858 2.8 5.98502C2.8 2.8457 5.30721 0.300781 8.4 0.300781C11.4928 0.300781 14 2.8457 14 5.98502C14 9.12433 11.4928 11.6693 8.4 11.6693C7.1059 11.6693 5.91433 11.2237 4.96605 10.4755ZM8.4 10.2482C10.7196 10.2482 12.6 8.33947 12.6 5.98498C12.6 3.63049 10.7196 1.7218 8.4 1.7218C6.08041 1.7218 4.2 3.63049 4.2 5.98498C4.2 8.33947 6.08041 10.2482 8.4 10.2482Z" fill="#DA6649"/>
</svg>
